# MagicaVoxel @ Ephtracy

# group
o 

# material
mtllib post.mtl
usemtl palette

# normals
vn -1 0 0
vn 1 0 0
vn 0 0 1
vn 0 0 -1
vn 0 -1 0
vn 0 1 0

# texcoords
vt 0.798828 0.5
vt 0.841797 0.5
vt 0.958984 0.5
vt 0.978516 0.5
vt 0.990234 0.5
vt 0.994141 0.5

# verts
v -2 2.3 2
v -2 2.3 -2.1
v -2 7.5 2
v -2 7.5 -2.1
v -1.9 0 0.4
v -1.9 0 -0.5
v -1.9 0.3 0.4
v -1.9 0.3 -0.5
v -1.8 0 0.7
v -1.8 0 0.4
v -1.8 0 -0.5
v -1.8 0 -0.8
v -1.8 0.3 0.7
v -1.8 0.3 0.4
v -1.8 0.3 -0.5
v -1.8 0.3 -0.8
v -1.7 0 0.9
v -1.7 0 0.7
v -1.7 0 -0.8
v -1.7 0 -1
v -1.7 0.3 0.9
v -1.7 0.3 0.7
v -1.7 0.3 -0.8
v -1.7 0.3 -1
v -1.6 0 1.1
v -1.6 0 0.9
v -1.6 0 -1
v -1.6 0 -1.2
v -1.6 0.3 1.1
v -1.6 0.3 0.9
v -1.6 0.3 -1
v -1.6 0.3 -1.2
v -1.5 0 1.2
v -1.5 0 1.1
v -1.5 0 -1.2
v -1.5 0 -1.3
v -1.5 0.3 1.2
v -1.5 0.3 1.1
v -1.5 0.3 -1.2
v -1.5 0.3 -1.3
v -1.4 0 1.3
v -1.4 0 1.2
v -1.4 0 -1.3
v -1.4 0 -1.4
v -1.4 0.3 1.3
v -1.4 0.3 1.2
v -1.4 0.3 -1.3
v -1.4 0.3 -1.4
v -1.3 0 1.4
v -1.3 0 1.3
v -1.3 0 -1.4
v -1.3 0 -1.5
v -1.3 0.3 1.4
v -1.3 0.3 1.3
v -1.3 0.3 -1.4
v -1.3 0.3 -1.5
v -1.2 0 1.5
v -1.2 0 1.4
v -1.2 0 -1.5
v -1.2 0 -1.6
v -1.2 0.3 1.5
v -1.2 0.3 1.4
v -1.2 0.3 -1.5
v -1.2 0.3 -1.6
v -1.1 0 1.6
v -1.1 0 1.5
v -1.1 0 -1.6
v -1.1 0 -1.7
v -1.1 0.3 1.6
v -1.1 0.3 1.5
v -1.1 0.3 -1.6
v -1.1 0.3 -1.7
v -0.9 0 1.7
v -0.9 0 1.6
v -0.9 0 -1.7
v -0.9 0 -1.8
v -0.9 0.3 1.7
v -0.9 0.3 1.6
v -0.9 0.3 -1.7
v -0.9 0.3 -1.8
v -0.7 0 1.8
v -0.7 0 1.7
v -0.7 0 -1.8
v -0.7 0 -1.9
v -0.7 0.3 1.8
v -0.7 0.3 1.7
v -0.7 0.3 -1.8
v -0.7 0.3 -1.9
v -0.5 0.3 0.5
v -0.5 0.3 -0.6
v -0.5 2.3 0.5
v -0.5 2.3 -0.6
v -0.4 0 1.9
v -0.4 0 1.8
v -0.4 0 -1.9
v -0.4 0 -2
v -0.4 0.3 1.9
v -0.4 0.3 1.8
v -0.4 0.3 -1.9
v -0.4 0.3 -2
v 1.7 5.8 2
v 1.7 5.8 1.8
v 1.7 7.1 2
v 1.7 7.1 1.8
v -1.6 5.8 2
v -1.6 5.8 1.8
v -1.6 7.1 2
v -1.6 7.1 1.8
v 0.5 0 1.9
v 0.5 0 1.8
v 0.5 0 -1.9
v 0.5 0 -2
v 0.5 0.3 1.9
v 0.5 0.3 1.8
v 0.5 0.3 -1.9
v 0.5 0.3 -2
v 0.6 0.3 0.5
v 0.6 0.3 -0.6
v 0.6 2.3 0.5
v 0.6 2.3 -0.6
v 0.8 0 1.8
v 0.8 0 1.7
v 0.8 0 -1.8
v 0.8 0 -1.9
v 0.8 0.3 1.8
v 0.8 0.3 1.7
v 0.8 0.3 -1.8
v 0.8 0.3 -1.9
v 1 0 1.7
v 1 0 1.6
v 1 0 -1.7
v 1 0 -1.8
v 1 0.3 1.7
v 1 0.3 1.6
v 1 0.3 -1.7
v 1 0.3 -1.8
v 1.2 0 1.6
v 1.2 0 1.5
v 1.2 0 -1.6
v 1.2 0 -1.7
v 1.2 0.3 1.6
v 1.2 0.3 1.5
v 1.2 0.3 -1.6
v 1.2 0.3 -1.7
v 1.3 0 1.5
v 1.3 0 1.4
v 1.3 0 -1.5
v 1.3 0 -1.6
v 1.3 0.3 1.5
v 1.3 0.3 1.4
v 1.3 0.3 -1.5
v 1.3 0.3 -1.6
v 1.4 0 1.4
v 1.4 0 1.3
v 1.4 0 -1.4
v 1.4 0 -1.5
v 1.4 0.3 1.4
v 1.4 0.3 1.3
v 1.4 0.3 -1.4
v 1.4 0.3 -1.5
v 1.5 0 1.3
v 1.5 0 1.2
v 1.5 0 -1.3
v 1.5 0 -1.4
v 1.5 0.3 1.3
v 1.5 0.3 1.2
v 1.5 0.3 -1.3
v 1.5 0.3 -1.4
v 1.6 0 1.2
v 1.6 0 1.1
v 1.6 0 -1.2
v 1.6 0 -1.3
v 1.6 0.3 1.2
v 1.6 0.3 1.1
v 1.6 0.3 -1.2
v 1.6 0.3 -1.3
v 1.7 0 1.1
v 1.7 0 0.9
v 1.7 0 -1
v 1.7 0 -1.2
v 1.7 0.3 1.1
v 1.7 0.3 0.9
v 1.7 0.3 -1
v 1.7 0.3 -1.2
v 1.8 0 0.9
v 1.8 0 0.7
v 1.8 0 -0.8
v 1.8 0 -1
v 1.8 0.3 0.9
v 1.8 0.3 0.7
v 1.8 0.3 -0.8
v 1.8 0.3 -1
v 1.9 0 0.7
v 1.9 0 0.4
v 1.9 0 -0.5
v 1.9 0 -0.8
v 1.9 0.3 0.7
v 1.9 0.3 0.4
v 1.9 0.3 -0.5
v 1.9 0.3 -0.8
v 2 0 0.4
v 2 0 -0.5
v 2 0.3 0.4
v 2 0.3 -0.5
v 2.1 2.3 2
v 2.1 2.3 -2.1
v 2.1 7.5 2
v 2.1 7.5 -2.1
v -2 2.3 2
v -2 7.5 2
v -1.6 5.8 2
v -1.6 7.1 2
v -0.4 4 2
v -0.4 4.1 2
v -0.4 4.3 2
v -0.4 4.4 2
v 2.38419e-007 3.6 2
v 2.38419e-007 4 2
v 0.2 3.6 2
v 0.2 4 2
v 0.6 4 2
v 0.6 4.1 2
v 0.6 4.3 2
v 0.6 4.4 2
v 1.7 5.8 2
v 1.7 7.1 2
v 2.1 2.3 2
v 2.1 7.5 2
v -0.4 0 1.9
v -0.4 0.3 1.9
v 0.5 0 1.9
v 0.5 0.3 1.9
v -1.6 5.8 1.8
v -1.6 7.1 1.8
v -1.3 6.6 1.8
v -1.3 6.8 1.8
v -1.2 6.3 1.8
v -1.2 6.4 1.8
v -0.7 0 1.8
v -0.7 0.3 1.8
v -0.4 0 1.8
v -0.4 0.3 1.8
v -0.3 6.3 1.8
v -0.3 6.4 1.8
v -0.2 6.6 1.8
v -0.2 6.8 1.8
v 0.3 6.6 1.8
v 0.3 6.8 1.8
v 0.4 6.3 1.8
v 0.4 6.4 1.8
v 0.5 0 1.8
v 0.5 0.3 1.8
v 0.8 0 1.8
v 0.8 0.3 1.8
v 1.3 6.3 1.8
v 1.3 6.4 1.8
v 1.4 6.6 1.8
v 1.4 6.8 1.8
v 1.7 5.8 1.8
v 1.7 7.1 1.8
v -0.9 0 1.7
v -0.9 0.3 1.7
v -0.7 0 1.7
v -0.7 0.3 1.7
v 0.8 0 1.7
v 0.8 0.3 1.7
v 1 0 1.7
v 1 0.3 1.7
v -1.1 0 1.6
v -1.1 0.3 1.6
v -0.9 0 1.6
v -0.9 0.3 1.6
v 1 0 1.6
v 1 0.3 1.6
v 1.2 0 1.6
v 1.2 0.3 1.6
v -1.2 0 1.5
v -1.2 0.3 1.5
v -1.1 0 1.5
v -1.1 0.3 1.5
v 1.2 0 1.5
v 1.2 0.3 1.5
v 1.3 0 1.5
v 1.3 0.3 1.5
v -1.3 0 1.4
v -1.3 0.3 1.4
v -1.2 0 1.4
v -1.2 0.3 1.4
v 1.3 0 1.4
v 1.3 0.3 1.4
v 1.4 0 1.4
v 1.4 0.3 1.4
v -1.4 0 1.3
v -1.4 0.3 1.3
v -1.3 0 1.3
v -1.3 0.3 1.3
v 1.4 0 1.3
v 1.4 0.3 1.3
v 1.5 0 1.3
v 1.5 0.3 1.3
v -1.5 0 1.2
v -1.5 0.3 1.2
v -1.4 0 1.2
v -1.4 0.3 1.2
v 1.5 0 1.2
v 1.5 0.3 1.2
v 1.6 0 1.2
v 1.6 0.3 1.2
v -1.6 0 1.1
v -1.6 0.3 1.1
v -1.5 0 1.1
v -1.5 0.3 1.1
v 1.6 0 1.1
v 1.6 0.3 1.1
v 1.7 0 1.1
v 1.7 0.3 1.1
v -1.7 0 0.9
v -1.7 0.3 0.9
v -1.6 0 0.9
v -1.6 0.3 0.9
v 1.7 0 0.9
v 1.7 0.3 0.9
v 1.8 0 0.9
v 1.8 0.3 0.9
v -1.8 0 0.7
v -1.8 0.3 0.7
v -1.7 0 0.7
v -1.7 0.3 0.7
v 1.8 0 0.7
v 1.8 0.3 0.7
v 1.9 0 0.7
v 1.9 0.3 0.7
v -0.5 0.3 0.5
v -0.5 2.3 0.5
v 0.6 0.3 0.5
v 0.6 2.3 0.5
v -1.9 0 0.4
v -1.9 0.3 0.4
v -1.8 0 0.4
v -1.8 0.3 0.4
v 1.9 0 0.4
v 1.9 0.3 0.4
v 2 0 0.4
v 2 0.3 0.4
v -1.9 0 -0.5
v -1.9 0.3 -0.5
v -1.8 0 -0.5
v -1.8 0.3 -0.5
v 1.9 0 -0.5
v 1.9 0.3 -0.5
v 2 0 -0.5
v 2 0.3 -0.5
v -0.5 0.3 -0.6
v -0.5 2.3 -0.6
v 0.6 0.3 -0.6
v 0.6 2.3 -0.6
v -1.8 0 -0.8
v -1.8 0.3 -0.8
v -1.7 0 -0.8
v -1.7 0.3 -0.8
v 1.8 0 -0.8
v 1.8 0.3 -0.8
v 1.9 0 -0.8
v 1.9 0.3 -0.8
v -1.7 0 -1
v -1.7 0.3 -1
v -1.6 0 -1
v -1.6 0.3 -1
v 1.7 0 -1
v 1.7 0.3 -1
v 1.8 0 -1
v 1.8 0.3 -1
v -1.6 0 -1.2
v -1.6 0.3 -1.2
v -1.5 0 -1.2
v -1.5 0.3 -1.2
v 1.6 0 -1.2
v 1.6 0.3 -1.2
v 1.7 0 -1.2
v 1.7 0.3 -1.2
v -1.5 0 -1.3
v -1.5 0.3 -1.3
v -1.4 0 -1.3
v -1.4 0.3 -1.3
v 1.5 0 -1.3
v 1.5 0.3 -1.3
v 1.6 0 -1.3
v 1.6 0.3 -1.3
v -1.4 0 -1.4
v -1.4 0.3 -1.4
v -1.3 0 -1.4
v -1.3 0.3 -1.4
v 1.4 0 -1.4
v 1.4 0.3 -1.4
v 1.5 0 -1.4
v 1.5 0.3 -1.4
v -1.3 0 -1.5
v -1.3 0.3 -1.5
v -1.2 0 -1.5
v -1.2 0.3 -1.5
v 1.3 0 -1.5
v 1.3 0.3 -1.5
v 1.4 0 -1.5
v 1.4 0.3 -1.5
v -1.2 0 -1.6
v -1.2 0.3 -1.6
v -1.1 0 -1.6
v -1.1 0.3 -1.6
v 1.2 0 -1.6
v 1.2 0.3 -1.6
v 1.3 0 -1.6
v 1.3 0.3 -1.6
v -1.1 0 -1.7
v -1.1 0.3 -1.7
v -0.9 0 -1.7
v -0.9 0.3 -1.7
v 1 0 -1.7
v 1 0.3 -1.7
v 1.2 0 -1.7
v 1.2 0.3 -1.7
v -0.9 0 -1.8
v -0.9 0.3 -1.8
v -0.7 0 -1.8
v -0.7 0.3 -1.8
v 0.8 0 -1.8
v 0.8 0.3 -1.8
v 1 0 -1.8
v 1 0.3 -1.8
v -0.7 0 -1.9
v -0.7 0.3 -1.9
v -0.4 0 -1.9
v -0.4 0.3 -1.9
v 0.5 0 -1.9
v 0.5 0.3 -1.9
v 0.8 0 -1.9
v 0.8 0.3 -1.9
v -0.4 0 -2
v -0.4 0.3 -2
v 0.5 0 -2
v 0.5 0.3 -2
v -2 2.3 -2.1
v -2 7.5 -2.1
v 2.1 2.3 -2.1
v 2.1 7.5 -2.1
v -0.4 0 1.9
v 0.5 0 1.9
v -0.7 0 1.8
v -0.4 0 1.8
v 0.5 0 1.8
v 0.8 0 1.8
v -0.9 0 1.7
v -0.7 0 1.7
v 0.8 0 1.7
v 1 0 1.7
v -1.1 0 1.6
v -0.9 0 1.6
v 1 0 1.6
v 1.2 0 1.6
v -1.2 0 1.5
v -1.1 0 1.5
v 1.2 0 1.5
v 1.3 0 1.5
v -1.3 0 1.4
v -1.2 0 1.4
v 1.3 0 1.4
v 1.4 0 1.4
v -1.4 0 1.3
v -1.3 0 1.3
v 1.4 0 1.3
v 1.5 0 1.3
v -1.5 0 1.2
v -1.4 0 1.2
v 1.5 0 1.2
v 1.6 0 1.2
v -1.6 0 1.1
v -1.5 0 1.1
v 1.6 0 1.1
v 1.7 0 1.1
v -1.7 0 0.9
v -1.6 0 0.9
v 1.7 0 0.9
v 1.8 0 0.9
v -1.8 0 0.7
v -1.7 0 0.7
v 1.8 0 0.7
v 1.9 0 0.7
v -1.9 0 0.4
v -1.8 0 0.4
v 1.9 0 0.4
v 2 0 0.4
v -1.9 0 -0.5
v -1.8 0 -0.5
v 1.9 0 -0.5
v 2 0 -0.5
v -1.8 0 -0.8
v -1.7 0 -0.8
v 1.8 0 -0.8
v 1.9 0 -0.8
v -1.7 0 -1
v -1.6 0 -1
v 1.7 0 -1
v 1.8 0 -1
v -1.6 0 -1.2
v -1.5 0 -1.2
v 1.6 0 -1.2
v 1.7 0 -1.2
v -1.5 0 -1.3
v -1.4 0 -1.3
v 1.5 0 -1.3
v 1.6 0 -1.3
v -1.4 0 -1.4
v -1.3 0 -1.4
v 1.4 0 -1.4
v 1.5 0 -1.4
v -1.3 0 -1.5
v -1.2 0 -1.5
v 1.3 0 -1.5
v 1.4 0 -1.5
v -1.2 0 -1.6
v -1.1 0 -1.6
v 1.2 0 -1.6
v 1.3 0 -1.6
v -1.1 0 -1.7
v -0.9 0 -1.7
v 1 0 -1.7
v 1.2 0 -1.7
v -0.9 0 -1.8
v -0.7 0 -1.8
v 0.8 0 -1.8
v 1 0 -1.8
v -0.7 0 -1.9
v -0.4 0 -1.9
v 0.5 0 -1.9
v 0.8 0 -1.9
v -0.4 0 -2
v 0.5 0 -2
v -2 2.3 2
v 2.1 2.3 2
v -0.5 2.3 0.5
v 0.6 2.3 0.5
v -0.5 2.3 -0.6
v 0.6 2.3 -0.6
v -2 2.3 -2.1
v 2.1 2.3 -2.1
v -1.6 7.1 2
v 1.7 7.1 2
v -1.6 7.1 1.8
v 1.7 7.1 1.8
v -0.4 0.3 1.9
v 0.5 0.3 1.9
v -0.7 0.3 1.8
v -0.4 0.3 1.8
v 0.5 0.3 1.8
v 0.8 0.3 1.8
v -0.9 0.3 1.7
v -0.7 0.3 1.7
v 0.8 0.3 1.7
v 1 0.3 1.7
v -1.1 0.3 1.6
v -0.9 0.3 1.6
v 1 0.3 1.6
v 1.2 0.3 1.6
v -1.2 0.3 1.5
v -1.1 0.3 1.5
v 1.2 0.3 1.5
v 1.3 0.3 1.5
v -1.3 0.3 1.4
v -1.2 0.3 1.4
v 1.3 0.3 1.4
v 1.4 0.3 1.4
v -1.4 0.3 1.3
v -1.3 0.3 1.3
v 1.4 0.3 1.3
v 1.5 0.3 1.3
v -1.5 0.3 1.2
v -1.4 0.3 1.2
v 1.5 0.3 1.2
v 1.6 0.3 1.2
v -1.6 0.3 1.1
v -1.5 0.3 1.1
v 1.6 0.3 1.1
v 1.7 0.3 1.1
v -1.7 0.3 0.9
v -1.6 0.3 0.9
v 1.7 0.3 0.9
v 1.8 0.3 0.9
v -1.8 0.3 0.7
v -1.7 0.3 0.7
v 1.8 0.3 0.7
v 1.9 0.3 0.7
v -0.5 0.3 0.5
v 0.6 0.3 0.5
v -1.9 0.3 0.4
v -1.8 0.3 0.4
v 1.9 0.3 0.4
v 2 0.3 0.4
v -1.9 0.3 -0.5
v -1.8 0.3 -0.5
v 1.9 0.3 -0.5
v 2 0.3 -0.5
v -0.5 0.3 -0.6
v 0.6 0.3 -0.6
v -1.8 0.3 -0.8
v -1.7 0.3 -0.8
v 1.8 0.3 -0.8
v 1.9 0.3 -0.8
v -1.7 0.3 -1
v -1.6 0.3 -1
v 1.7 0.3 -1
v 1.8 0.3 -1
v -1.6 0.3 -1.2
v -1.5 0.3 -1.2
v 1.6 0.3 -1.2
v 1.7 0.3 -1.2
v -1.5 0.3 -1.3
v -1.4 0.3 -1.3
v 1.5 0.3 -1.3
v 1.6 0.3 -1.3
v -1.4 0.3 -1.4
v -1.3 0.3 -1.4
v 1.4 0.3 -1.4
v 1.5 0.3 -1.4
v -1.3 0.3 -1.5
v -1.2 0.3 -1.5
v 1.3 0.3 -1.5
v 1.4 0.3 -1.5
v -1.2 0.3 -1.6
v -1.1 0.3 -1.6
v 1.2 0.3 -1.6
v 1.3 0.3 -1.6
v -1.1 0.3 -1.7
v -0.9 0.3 -1.7
v 1 0.3 -1.7
v 1.2 0.3 -1.7
v -0.9 0.3 -1.8
v -0.7 0.3 -1.8
v 0.8 0.3 -1.8
v 1 0.3 -1.8
v -0.7 0.3 -1.9
v -0.4 0.3 -1.9
v 0.5 0.3 -1.9
v 0.8 0.3 -1.9
v -0.4 0.3 -2
v 0.5 0.3 -2
v -1.6 5.8 2
v 1.7 5.8 2
v -1.6 5.8 1.8
v 1.7 5.8 1.8
v -2 7.5 2
v 2.1 7.5 2
v -2 7.5 -2.1
v 2.1 7.5 -2.1

# faces
f 3/2/1 2/2/1 1/2/1
f 4/2/1 2/2/1 3/2/1
f 7/4/1 6/4/1 5/4/1
f 8/4/1 6/4/1 7/4/1
f 13/4/1 10/4/1 9/4/1
f 14/4/1 10/4/1 13/4/1
f 15/4/1 12/4/1 11/4/1
f 16/4/1 12/4/1 15/4/1
f 21/4/1 18/4/1 17/4/1
f 22/4/1 18/4/1 21/4/1
f 23/4/1 20/4/1 19/4/1
f 24/4/1 20/4/1 23/4/1
f 29/4/1 26/4/1 25/4/1
f 30/4/1 26/4/1 29/4/1
f 31/4/1 28/4/1 27/4/1
f 32/4/1 28/4/1 31/4/1
f 37/4/1 34/4/1 33/4/1
f 38/4/1 34/4/1 37/4/1
f 39/4/1 36/4/1 35/4/1
f 40/4/1 36/4/1 39/4/1
f 45/4/1 42/4/1 41/4/1
f 46/4/1 42/4/1 45/4/1
f 47/4/1 44/4/1 43/4/1
f 48/4/1 44/4/1 47/4/1
f 53/4/1 50/4/1 49/4/1
f 54/4/1 50/4/1 53/4/1
f 55/4/1 52/4/1 51/4/1
f 56/4/1 52/4/1 55/4/1
f 61/4/1 58/4/1 57/4/1
f 62/4/1 58/4/1 61/4/1
f 63/4/1 60/4/1 59/4/1
f 64/4/1 60/4/1 63/4/1
f 69/4/1 66/4/1 65/4/1
f 70/4/1 66/4/1 69/4/1
f 71/4/1 68/4/1 67/4/1
f 72/4/1 68/4/1 71/4/1
f 77/4/1 74/4/1 73/4/1
f 78/4/1 74/4/1 77/4/1
f 79/4/1 76/4/1 75/4/1
f 80/4/1 76/4/1 79/4/1
f 85/4/1 82/4/1 81/4/1
f 86/4/1 82/4/1 85/4/1
f 87/4/1 84/4/1 83/4/1
f 88/4/1 84/4/1 87/4/1
f 91/5/1 90/5/1 89/5/1
f 92/5/1 90/5/1 91/5/1
f 97/4/1 94/4/1 93/4/1
f 98/4/1 94/4/1 97/4/1
f 99/4/1 96/4/1 95/4/1
f 100/4/1 96/4/1 99/4/1
f 103/2/1 102/2/1 101/2/1
f 104/2/1 102/2/1 103/2/1
f 105/2/2 106/2/2 107/2/2
f 107/2/2 106/2/2 108/2/2
f 109/4/2 110/4/2 113/4/2
f 113/4/2 110/4/2 114/4/2
f 111/4/2 112/4/2 115/4/2
f 115/4/2 112/4/2 116/4/2
f 117/5/2 118/5/2 119/5/2
f 119/5/2 118/5/2 120/5/2
f 121/4/2 122/4/2 125/4/2
f 125/4/2 122/4/2 126/4/2
f 123/4/2 124/4/2 127/4/2
f 127/4/2 124/4/2 128/4/2
f 129/4/2 130/4/2 133/4/2
f 133/4/2 130/4/2 134/4/2
f 131/4/2 132/4/2 135/4/2
f 135/4/2 132/4/2 136/4/2
f 137/4/2 138/4/2 141/4/2
f 141/4/2 138/4/2 142/4/2
f 139/4/2 140/4/2 143/4/2
f 143/4/2 140/4/2 144/4/2
f 145/4/2 146/4/2 149/4/2
f 149/4/2 146/4/2 150/4/2
f 147/4/2 148/4/2 151/4/2
f 151/4/2 148/4/2 152/4/2
f 153/4/2 154/4/2 157/4/2
f 157/4/2 154/4/2 158/4/2
f 155/4/2 156/4/2 159/4/2
f 159/4/2 156/4/2 160/4/2
f 161/4/2 162/4/2 165/4/2
f 165/4/2 162/4/2 166/4/2
f 163/4/2 164/4/2 167/4/2
f 167/4/2 164/4/2 168/4/2
f 169/4/2 170/4/2 173/4/2
f 173/4/2 170/4/2 174/4/2
f 171/4/2 172/4/2 175/4/2
f 175/4/2 172/4/2 176/4/2
f 177/4/2 178/4/2 181/4/2
f 181/4/2 178/4/2 182/4/2
f 179/4/2 180/4/2 183/4/2
f 183/4/2 180/4/2 184/4/2
f 185/4/2 186/4/2 189/4/2
f 189/4/2 186/4/2 190/4/2
f 187/4/2 188/4/2 191/4/2
f 191/4/2 188/4/2 192/4/2
f 193/4/2 194/4/2 197/4/2
f 197/4/2 194/4/2 198/4/2
f 195/4/2 196/4/2 199/4/2
f 199/4/2 196/4/2 200/4/2
f 201/4/2 202/4/2 203/4/2
f 203/4/2 202/4/2 204/4/2
f 205/2/2 206/2/2 207/2/2
f 207/2/2 206/2/2 208/2/2
f 211/2/3 210/2/3 209/2/3
f 212/2/3 210/2/3 211/2/3
f 213/2/3 211/2/3 209/2/3
f 214/2/3 211/2/3 213/2/3
f 215/2/3 211/2/3 214/2/3
f 216/2/3 211/2/3 215/2/3
f 217/2/3 213/2/3 209/2/3
f 218/3/3 214/3/3 213/3/3
f 218/2/3 213/2/3 217/2/3
f 219/2/3 217/2/3 209/2/3
f 219/3/3 218/3/3 217/3/3
f 220/3/3 214/3/3 218/3/3
f 220/3/3 218/3/3 219/3/3
f 221/2/3 220/2/3 219/2/3
f 221/3/3 214/3/3 220/3/3
f 222/2/3 215/2/3 214/2/3
f 222/3/3 214/3/3 221/3/3
f 223/3/3 216/3/3 215/3/3
f 223/2/3 215/2/3 222/2/3
f 224/2/3 211/2/3 216/2/3
f 224/3/3 216/3/3 223/3/3
f 225/2/3 223/2/3 222/2/3
f 225/2/3 211/2/3 224/2/3
f 225/2/3 224/2/3 223/2/3
f 225/2/3 222/2/3 221/2/3
f 226/2/3 210/2/3 212/2/3
f 227/2/3 225/2/3 221/2/3
f 227/2/3 226/2/3 225/2/3
f 227/2/3 221/2/3 219/2/3
f 227/2/3 219/2/3 209/2/3
f 228/2/3 210/2/3 226/2/3
f 228/2/3 226/2/3 227/2/3
f 231/4/3 230/4/3 229/4/3
f 232/4/3 230/4/3 231/4/3
f 235/3/3 234/3/3 233/3/3
f 236/3/3 234/3/3 235/3/3
f 237/3/3 235/3/3 233/3/3
f 238/3/3 235/3/3 237/3/3
f 241/4/3 240/4/3 239/4/3
f 242/4/3 240/4/3 241/4/3
f 243/3/3 237/3/3 233/3/3
f 243/2/3 238/2/3 237/2/3
f 244/3/3 235/3/3 238/3/3
f 244/2/3 238/2/3 243/2/3
f 245/6/3 236/6/3 235/6/3
f 245/3/3 235/3/3 244/3/3
f 245/3/3 244/3/3 243/3/3
f 246/3/3 234/3/3 236/3/3
f 246/6/3 236/6/3 245/6/3
f 247/3/3 245/3/3 243/3/3
f 247/3/3 246/3/3 245/3/3
f 248/3/3 234/3/3 246/3/3
f 248/3/3 246/3/3 247/3/3
f 249/3/3 247/3/3 243/3/3
f 249/3/3 243/3/3 233/3/3
f 250/3/3 247/3/3 249/3/3
f 253/4/3 252/4/3 251/4/3
f 254/4/3 252/4/3 253/4/3
f 255/3/3 249/3/3 233/3/3
f 255/1/3 250/1/3 249/1/3
f 256/3/3 247/3/3 250/3/3
f 256/1/3 250/1/3 255/1/3
f 257/6/3 248/6/3 247/6/3
f 257/3/3 247/3/3 256/3/3
f 257/3/3 256/3/3 255/3/3
f 258/3/3 234/3/3 248/3/3
f 258/6/3 248/6/3 257/6/3
f 259/3/3 257/3/3 255/3/3
f 259/3/3 255/3/3 233/3/3
f 259/3/3 258/3/3 257/3/3
f 260/3/3 234/3/3 258/3/3
f 260/3/3 258/3/3 259/3/3
f 263/4/3 262/4/3 261/4/3
f 264/4/3 262/4/3 263/4/3
f 267/4/3 266/4/3 265/4/3
f 268/4/3 266/4/3 267/4/3
f 271/4/3 270/4/3 269/4/3
f 272/4/3 270/4/3 271/4/3
f 275/4/3 274/4/3 273/4/3
f 276/4/3 274/4/3 275/4/3
f 279/4/3 278/4/3 277/4/3
f 280/4/3 278/4/3 279/4/3
f 283/4/3 282/4/3 281/4/3
f 284/4/3 282/4/3 283/4/3
f 287/4/3 286/4/3 285/4/3
f 288/4/3 286/4/3 287/4/3
f 291/4/3 290/4/3 289/4/3
f 292/4/3 290/4/3 291/4/3
f 295/4/3 294/4/3 293/4/3
f 296/4/3 294/4/3 295/4/3
f 299/4/3 298/4/3 297/4/3
f 300/4/3 298/4/3 299/4/3
f 303/4/3 302/4/3 301/4/3
f 304/4/3 302/4/3 303/4/3
f 307/4/3 306/4/3 305/4/3
f 308/4/3 306/4/3 307/4/3
f 311/4/3 310/4/3 309/4/3
f 312/4/3 310/4/3 311/4/3
f 315/4/3 314/4/3 313/4/3
f 316/4/3 314/4/3 315/4/3
f 319/4/3 318/4/3 317/4/3
f 320/4/3 318/4/3 319/4/3
f 323/4/3 322/4/3 321/4/3
f 324/4/3 322/4/3 323/4/3
f 327/4/3 326/4/3 325/4/3
f 328/4/3 326/4/3 327/4/3
f 331/4/3 330/4/3 329/4/3
f 332/4/3 330/4/3 331/4/3
f 335/5/3 334/5/3 333/5/3
f 336/5/3 334/5/3 335/5/3
f 339/4/3 338/4/3 337/4/3
f 340/4/3 338/4/3 339/4/3
f 343/4/3 342/4/3 341/4/3
f 344/4/3 342/4/3 343/4/3
f 345/4/4 346/4/4 347/4/4
f 347/4/4 346/4/4 348/4/4
f 349/4/4 350/4/4 351/4/4
f 351/4/4 350/4/4 352/4/4
f 353/5/4 354/5/4 355/5/4
f 355/5/4 354/5/4 356/5/4
f 357/4/4 358/4/4 359/4/4
f 359/4/4 358/4/4 360/4/4
f 361/4/4 362/4/4 363/4/4
f 363/4/4 362/4/4 364/4/4
f 365/4/4 366/4/4 367/4/4
f 367/4/4 366/4/4 368/4/4
f 369/4/4 370/4/4 371/4/4
f 371/4/4 370/4/4 372/4/4
f 373/4/4 374/4/4 375/4/4
f 375/4/4 374/4/4 376/4/4
f 377/4/4 378/4/4 379/4/4
f 379/4/4 378/4/4 380/4/4
f 381/4/4 382/4/4 383/4/4
f 383/4/4 382/4/4 384/4/4
f 385/4/4 386/4/4 387/4/4
f 387/4/4 386/4/4 388/4/4
f 389/4/4 390/4/4 391/4/4
f 391/4/4 390/4/4 392/4/4
f 393/4/4 394/4/4 395/4/4
f 395/4/4 394/4/4 396/4/4
f 397/4/4 398/4/4 399/4/4
f 399/4/4 398/4/4 400/4/4
f 401/4/4 402/4/4 403/4/4
f 403/4/4 402/4/4 404/4/4
f 405/4/4 406/4/4 407/4/4
f 407/4/4 406/4/4 408/4/4
f 409/4/4 410/4/4 411/4/4
f 411/4/4 410/4/4 412/4/4
f 413/4/4 414/4/4 415/4/4
f 415/4/4 414/4/4 416/4/4
f 417/4/4 418/4/4 419/4/4
f 419/4/4 418/4/4 420/4/4
f 421/4/4 422/4/4 423/4/4
f 423/4/4 422/4/4 424/4/4
f 425/4/4 426/4/4 427/4/4
f 427/4/4 426/4/4 428/4/4
f 429/4/4 430/4/4 431/4/4
f 431/4/4 430/4/4 432/4/4
f 433/4/4 434/4/4 435/4/4
f 435/4/4 434/4/4 436/4/4
f 437/4/4 438/4/4 439/4/4
f 439/4/4 438/4/4 440/4/4
f 441/2/4 442/2/4 443/2/4
f 443/2/4 442/2/4 444/2/4
f 448/4/5 446/4/5 445/4/5
f 449/4/5 446/4/5 448/4/5
f 452/4/5 448/4/5 447/4/5
f 452/4/5 450/4/5 449/4/5
f 452/4/5 449/4/5 448/4/5
f 453/4/5 450/4/5 452/4/5
f 456/4/5 452/4/5 451/4/5
f 456/4/5 454/4/5 453/4/5
f 456/4/5 453/4/5 452/4/5
f 457/4/5 454/4/5 456/4/5
f 460/4/5 456/4/5 455/4/5
f 460/4/5 458/4/5 457/4/5
f 460/4/5 457/4/5 456/4/5
f 461/4/5 458/4/5 460/4/5
f 464/4/5 460/4/5 459/4/5
f 464/4/5 462/4/5 461/4/5
f 464/4/5 461/4/5 460/4/5
f 465/4/5 462/4/5 464/4/5
f 468/4/5 464/4/5 463/4/5
f 468/4/5 466/4/5 465/4/5
f 468/4/5 465/4/5 464/4/5
f 469/4/5 466/4/5 468/4/5
f 472/4/5 468/4/5 467/4/5
f 472/4/5 470/4/5 469/4/5
f 472/4/5 469/4/5 468/4/5
f 473/4/5 470/4/5 472/4/5
f 476/4/5 472/4/5 471/4/5
f 476/4/5 474/4/5 473/4/5
f 476/4/5 473/4/5 472/4/5
f 477/4/5 474/4/5 476/4/5
f 480/4/5 476/4/5 475/4/5
f 480/4/5 478/4/5 477/4/5
f 480/4/5 477/4/5 476/4/5
f 481/4/5 478/4/5 480/4/5
f 484/4/5 480/4/5 479/4/5
f 484/4/5 482/4/5 481/4/5
f 484/4/5 481/4/5 480/4/5
f 485/4/5 482/4/5 484/4/5
f 488/4/5 484/4/5 483/4/5
f 488/4/5 486/4/5 485/4/5
f 488/4/5 485/4/5 484/4/5
f 489/4/5 486/4/5 488/4/5
f 491/4/5 488/4/5 487/4/5
f 491/4/5 490/4/5 489/4/5
f 491/4/5 489/4/5 488/4/5
f 492/4/5 490/4/5 491/4/5
f 493/4/5 490/4/5 492/4/5
f 494/4/5 490/4/5 493/4/5
f 495/4/5 493/4/5 492/4/5
f 496/4/5 493/4/5 495/4/5
f 497/4/5 493/4/5 496/4/5
f 498/4/5 493/4/5 497/4/5
f 499/4/5 497/4/5 496/4/5
f 500/4/5 497/4/5 499/4/5
f 501/4/5 497/4/5 500/4/5
f 502/4/5 497/4/5 501/4/5
f 503/4/5 501/4/5 500/4/5
f 504/4/5 501/4/5 503/4/5
f 505/4/5 501/4/5 504/4/5
f 506/4/5 501/4/5 505/4/5
f 507/4/5 505/4/5 504/4/5
f 508/4/5 505/4/5 507/4/5
f 509/4/5 505/4/5 508/4/5
f 510/4/5 505/4/5 509/4/5
f 511/4/5 509/4/5 508/4/5
f 512/4/5 509/4/5 511/4/5
f 513/4/5 509/4/5 512/4/5
f 514/4/5 509/4/5 513/4/5
f 515/4/5 513/4/5 512/4/5
f 516/4/5 513/4/5 515/4/5
f 517/4/5 513/4/5 516/4/5
f 518/4/5 513/4/5 517/4/5
f 519/4/5 517/4/5 516/4/5
f 520/4/5 517/4/5 519/4/5
f 521/4/5 517/4/5 520/4/5
f 522/4/5 517/4/5 521/4/5
f 523/4/5 521/4/5 520/4/5
f 524/4/5 521/4/5 523/4/5
f 525/4/5 521/4/5 524/4/5
f 526/4/5 521/4/5 525/4/5
f 527/4/5 525/4/5 524/4/5
f 528/4/5 525/4/5 527/4/5
f 529/4/5 525/4/5 528/4/5
f 530/4/5 525/4/5 529/4/5
f 531/4/5 529/4/5 528/4/5
f 532/4/5 529/4/5 531/4/5
f 533/4/5 529/4/5 532/4/5
f 534/4/5 529/4/5 533/4/5
f 535/4/5 533/4/5 532/4/5
f 536/4/5 533/4/5 535/4/5
f 539/2/5 538/2/5 537/2/5
f 540/2/5 538/2/5 539/2/5
f 541/2/5 539/2/5 537/2/5
f 542/2/5 538/2/5 540/2/5
f 543/2/5 541/2/5 537/2/5
f 543/2/5 542/2/5 541/2/5
f 544/2/5 538/2/5 542/2/5
f 544/2/5 542/2/5 543/2/5
f 547/2/5 546/2/5 545/2/5
f 548/2/5 546/2/5 547/2/5
f 549/4/6 550/4/6 552/4/6
f 552/4/6 550/4/6 553/4/6
f 551/4/6 552/4/6 556/4/6
f 553/4/6 554/4/6 556/4/6
f 552/4/6 553/4/6 556/4/6
f 556/4/6 554/4/6 557/4/6
f 555/4/6 556/4/6 560/4/6
f 557/4/6 558/4/6 560/4/6
f 556/4/6 557/4/6 560/4/6
f 560/4/6 558/4/6 561/4/6
f 559/4/6 560/4/6 564/4/6
f 561/4/6 562/4/6 564/4/6
f 560/4/6 561/4/6 564/4/6
f 564/4/6 562/4/6 565/4/6
f 563/4/6 564/4/6 568/4/6
f 565/4/6 566/4/6 568/4/6
f 564/4/6 565/4/6 568/4/6
f 568/4/6 566/4/6 569/4/6
f 567/4/6 568/4/6 572/4/6
f 569/4/6 570/4/6 572/4/6
f 568/4/6 569/4/6 572/4/6
f 572/4/6 570/4/6 573/4/6
f 571/4/6 572/4/6 576/4/6
f 573/4/6 574/4/6 576/4/6
f 572/4/6 573/4/6 576/4/6
f 576/4/6 574/4/6 577/4/6
f 575/4/6 576/4/6 580/4/6
f 577/4/6 578/4/6 580/4/6
f 576/4/6 577/4/6 580/4/6
f 580/4/6 578/4/6 581/4/6
f 579/4/6 580/4/6 584/4/6
f 581/4/6 582/4/6 584/4/6
f 580/4/6 581/4/6 584/4/6
f 584/4/6 582/4/6 585/4/6
f 583/4/6 584/4/6 588/4/6
f 585/4/6 586/4/6 588/4/6
f 584/4/6 585/4/6 588/4/6
f 588/4/6 586/4/6 589/4/6
f 587/4/6 588/4/6 591/4/6
f 589/4/6 590/4/6 591/4/6
f 588/4/6 589/4/6 591/4/6
f 591/4/6 590/4/6 592/4/6
f 587/4/6 591/4/6 594/4/6
f 592/4/6 590/4/6 595/4/6
f 593/4/6 594/4/6 597/4/6
f 594/4/6 591/4/6 598/4/6
f 597/4/6 594/4/6 598/4/6
f 595/4/6 596/4/6 599/4/6
f 592/4/6 595/4/6 599/4/6
f 599/4/6 596/4/6 600/4/6
f 598/4/6 591/4/6 601/4/6
f 592/4/6 599/4/6 602/4/6
f 598/4/6 601/4/6 603/4/6
f 601/4/6 602/4/6 603/4/6
f 603/4/6 602/4/6 604/4/6
f 602/4/6 599/4/6 605/4/6
f 604/4/6 602/4/6 605/4/6
f 605/4/6 599/4/6 606/4/6
f 604/4/6 605/4/6 607/4/6
f 607/4/6 605/4/6 608/4/6
f 608/4/6 605/4/6 609/4/6
f 609/4/6 605/4/6 610/4/6
f 608/4/6 609/4/6 611/4/6
f 611/4/6 609/4/6 612/4/6
f 612/4/6 609/4/6 613/4/6
f 613/4/6 609/4/6 614/4/6
f 612/4/6 613/4/6 615/4/6
f 615/4/6 613/4/6 616/4/6
f 616/4/6 613/4/6 617/4/6
f 617/4/6 613/4/6 618/4/6
f 616/4/6 617/4/6 619/4/6
f 619/4/6 617/4/6 620/4/6
f 620/4/6 617/4/6 621/4/6
f 621/4/6 617/4/6 622/4/6
f 620/4/6 621/4/6 623/4/6
f 623/4/6 621/4/6 624/4/6
f 624/4/6 621/4/6 625/4/6
f 625/4/6 621/4/6 626/4/6
f 624/4/6 625/4/6 627/4/6
f 627/4/6 625/4/6 628/4/6
f 628/4/6 625/4/6 629/4/6
f 629/4/6 625/4/6 630/4/6
f 628/4/6 629/4/6 631/4/6
f 631/4/6 629/4/6 632/4/6
f 632/4/6 629/4/6 633/4/6
f 633/4/6 629/4/6 634/4/6
f 632/4/6 633/4/6 635/4/6
f 635/4/6 633/4/6 636/4/6
f 636/4/6 633/4/6 637/4/6
f 637/4/6 633/4/6 638/4/6
f 636/4/6 637/4/6 639/4/6
f 639/4/6 637/4/6 640/4/6
f 640/4/6 637/4/6 641/4/6
f 641/4/6 637/4/6 642/4/6
f 640/4/6 641/4/6 643/4/6
f 643/4/6 641/4/6 644/4/6
f 645/2/6 646/2/6 647/2/6
f 647/2/6 646/2/6 648/2/6
f 649/2/6 650/2/6 651/2/6
f 651/2/6 650/2/6 652/2/6
